# xmcd CD database file
#
# Track frame offsets:
#	182
#	13957
#	29960
#	44597
#	60345
#	76785
#	93767
#	113040
#	125792
#	140780
#
# Disc length: 2043 seconds
#
# Revision: 0
# Processed by: cddbd v1.4PL0 Copyright (c) Steve Scherf et al.
# Submitted via: Feurio! 1.65 - http://www.feurio.com
#
DISCID=8b07f90a
DTITLE=Canned Heat - Dog House Blues
DYEAR=1900
DGENRE=Blues
TTITLE0=Kings Of The Boogie
TTITLE1=Stoned Bad Street Fighting Man
TTITLE2=So Fine
TTITLE3=You Can't Get Close To Me
TTITLE4=Hell's Just On Down The Road
TTITLE5=I Was Wrong
TTITLE6=Little Crystal
TTITLE7=Dog House Blues
TTITLE8=Sleepy Hollow Baby
TTITLE9=Chicken Shack
EXTD=King Beat Records CD 90135
EXTT0=
EXTT1=
EXTT2=
EXTT3=
EXTT4=
EXTT5=
EXTT6=
EXTT7=
EXTT8=
EXTT9=
PLAYORDER=
